<svg width="28" height="28" viewBox="0 0 32 32" fill="none" xmlns="http://www.w3.org/2000/svg">
<path d="M9.77616 32C5.3575 32 1.62416 28.8373 0.898833 24.4787L0.0135004 19.164C-0.0344996 18.8747 0.0468337 18.5787 0.236167 18.3533C0.428167 18.128 0.7055 18 1.00017 18H6.17216C6.5895 16.82 7.72016 16 9.00016 16H15.0002C16.2802 16 17.4108 16.82 17.8282 18H28.0002V5C28.0002 3.34533 26.6548 2 25.0002 2C23.6682 2 22.5082 2.88933 22.1322 4.132C24.3708 4.65067 26.0002 6.65467 26.0002 9C26.0002 9.552 25.5522 10 25.0002 10H17.0002C16.4482 10 16.0002 9.552 16.0002 9C16.0002 6.56667 17.7308 4.51867 20.0842 4.084C20.5175 1.73067 22.5655 0 25.0002 0C27.7575 0 30.0002 2.24267 30.0002 5V18H31.0002C31.2948 18 31.5722 18.128 31.7628 18.3533C31.9535 18.5787 32.0348 18.8733 31.9868 19.164L31.1015 24.4787C30.3748 28.8373 26.6415 32 22.2228 32H9.77616ZM2.87216 24.1507C3.43616 27.54 6.34016 30 9.77616 30H22.2215C25.6588 30 28.5628 27.54 29.1268 24.1507L29.8202 20H18.0002V26C18.0002 27.1027 17.1028 28 16.0002 28H8.00016C6.8975 28 6.00016 27.1027 6.00016 26V20H2.18016L2.87216 24.1507ZM9.00016 18C8.44816 18 8.00016 18.448 8.00016 19V26H16.0002V19C16.0002 18.448 15.5522 18 15.0002 18H9.00016ZM23.8282 8C23.4108 6.828 22.2828 6 21.0002 6C19.7175 6 18.5882 6.828 18.1722 8H23.8282Z" fill="#76BD22"/>
</svg>
