<svg width="28" height="28" viewBox="0 0 32 32" fill="none" xmlns="http://www.w3.org/2000/svg">
<path d="M31 32C30.448 32 30 31.4486 30 30.7692V27.0769H2V30.7692C2 31.4486 1.552 32 1 32C0.448 32 0 31.4486 0 30.7692V18.0513C0 15.8507 1.284 14.0045 3 13.6172V3.69231C3 1.65579 4.34533 0 6 0H26C27.6547 0 29 1.65579 29 3.69231V13.6172C30.716 14.0045 32 15.8507 32 18.0513V30.7692C32 31.4486 31.552 32 31 32ZM30 24.6154V18.0513C30 16.9206 29.252 16 28.3333 16H3.66667C2.748 16 2 16.9206 2 18.0513V24.6154H30ZM27 13.5385V11.0769C27 10.3975 26.552 9.84615 26 9.84615H18C17.448 9.84615 17 10.3975 17 11.0769V13.5385H27ZM15 13.5385V11.0769C15 10.3975 14.552 9.84615 14 9.84615H6C5.448 9.84615 5 10.3975 5 11.0769V13.5385H15ZM14 7.38462C14.7507 7.38462 15.4547 7.72267 16 8.3282C16.5453 7.72103 17.2493 7.38462 18 7.38462H26C26.3453 7.38462 26.6813 7.45682 27 7.59631V3.69231C27 3.01292 26.552 2.46154 26 2.46154H6C5.448 2.46154 5 3.01292 5 3.69231V7.59631C5.31867 7.45682 5.65467 7.38462 6 7.38462H14Z" fill="#76BD22"/>
</svg>
