<svg width="105" height="24" viewBox="0 0 105 24" fill="none" xmlns="http://www.w3.org/2000/svg">
<g clip-path="url(#clip0_1133_1461)">
<path d="M7.34687 4.28925H21.3308C22.7995 4.28925 24 5.38995 24 6.7365V21.5528C24 22.8932 22.7933 24 21.3308 24H7.34687C5.87872 24 4.67821 22.8988 4.67821 21.5528V6.7365C4.67821 5.38901 5.8777 4.28925 7.34687 4.28925ZM13.6114 12.263C13.1074 12.9034 12.0461 12.2039 12.547 11.562L13.485 10.367C13.72 10.0669 14.0174 9.81244 14.3601 9.6182C14.7047 9.42351 15.0875 9.29249 15.4869 9.23254C16.3261 9.10727 17.1408 9.30432 17.7789 9.72471C18.4171 10.146 18.8797 10.7907 19.0168 11.5601C19.0819 11.9264 19.0682 12.3008 18.9764 12.6622C18.885 13.022 18.7166 13.3615 18.481 13.6611L17.5435 14.8561C17.0405 15.4975 15.9771 14.7961 16.4807 14.1547L17.4171 12.9602C17.5558 12.7838 17.65 12.5886 17.7012 12.3878C17.7544 12.179 17.761 11.9627 17.7242 11.7539C17.6449 11.3096 17.3798 10.9389 17.0149 10.6983C16.6496 10.4571 16.1818 10.345 15.6983 10.4177C15.4705 10.4519 15.2495 10.5265 15.0499 10.6391C14.8535 10.7503 14.683 10.8961 14.5484 11.068L13.6114 12.263ZM14.6922 12.5694C15.1988 11.9308 16.2535 12.6289 15.752 13.2708L14.0101 15.6838C13.5065 16.3209 12.4498 15.6232 12.9498 14.9828L14.6922 12.5694ZM15.0499 16.0483C15.5539 15.407 16.6163 16.1084 16.1133 16.7498L15.1937 17.9218C14.9511 18.2305 14.6518 18.482 14.3181 18.6706C13.9737 18.8655 13.5908 18.9966 13.1913 19.0562C12.3521 19.1815 11.5379 18.9845 10.8998 18.5641C10.2617 18.1432 9.79906 17.4981 9.66192 16.7286C9.59666 16.3629 9.61022 15.9889 9.70183 15.6279C9.79396 15.2686 9.96246 14.9295 10.1977 14.63L11.1193 13.4528C11.6244 12.8152 12.6821 13.5162 12.1812 14.1561L11.2611 15.3286C11.1257 15.5 11.029 15.6944 10.9765 15.9005C10.9243 16.1083 10.9168 16.3235 10.9545 16.5339L10.9551 16.5372C11.0339 16.9796 11.2984 17.3498 11.6633 17.5901C12.0281 17.8307 12.4943 17.9433 12.9779 17.8716L12.9815 17.8706C13.2087 17.8364 13.4298 17.7618 13.6278 17.6496C13.8192 17.5417 13.9911 17.3977 14.1298 17.2208L15.0499 16.0483ZM1.8719 16.4598C1.8719 16.9337 1.45279 17.3179 0.935949 17.3179C0.419104 17.3179 0 16.9337 0 16.4598V2.44725C0 1.09976 1.19949 0 2.66917 0H16.6526C17.1695 0 17.5886 0.384259 17.5886 0.858132C17.5886 1.332 17.1695 1.71626 16.6526 1.71626H2.66917C2.23215 1.71626 1.8719 2.04657 1.8719 2.44725V16.4598ZM21.3308 6.00551H7.34687C6.91036 6.00551 6.55011 6.33582 6.55011 6.7365V21.5528C6.55011 21.9525 6.91139 22.2837 7.34687 22.2837H21.3308C21.7704 22.2837 22.1281 21.9558 22.1281 21.5528V6.7365C22.1281 6.33675 21.7668 6.00551 21.3308 6.00551Z" fill="#3C3CFD"/>
</g>
<path d="M36.3125 19.1953C38.6074 19.1953 40.2773 17.7012 40.5508 15.7676L40.5605 15.6992H38.8906L38.8711 15.7773C38.5879 16.9102 37.6992 17.6914 36.3125 17.6914C34.5547 17.6914 33.3438 16.2949 33.3438 13.9316V13.9219C33.3438 11.6172 34.5254 10.1523 36.293 10.1523C37.7871 10.1523 38.6074 11.0508 38.8613 12.0664L38.8809 12.1445H40.541L40.5312 12.0664C40.3164 10.3281 38.8223 8.64844 36.293 8.64844C33.4707 8.64844 31.6055 10.6992 31.6055 13.9023V13.9121C31.6055 17.1445 33.4316 19.1953 36.3125 19.1953ZM46.332 19.1953C49.1348 19.1953 51.0293 17.1641 51.0293 13.9219V13.9023C51.0293 10.6602 49.125 8.64844 46.3223 8.64844C43.5195 8.64844 41.625 10.6699 41.625 13.9023V13.9219C41.625 17.1543 43.5098 19.1953 46.332 19.1953ZM46.3418 17.6914C44.5449 17.6914 43.3633 16.3145 43.3633 13.9219V13.9023C43.3633 11.5293 44.5547 10.1523 46.3223 10.1523C48.1191 10.1523 49.291 11.5195 49.291 13.9023V13.9219C49.291 16.3047 48.1289 17.6914 46.3418 17.6914ZM52.748 22.418H54.4473V17.3008H54.4863C55.1211 18.4727 56.3027 19.1953 57.7383 19.1953C60.2871 19.1953 62.0254 17.1348 62.0254 13.9316V13.9219C62.0254 10.7188 60.3066 8.64844 57.709 8.64844C56.2539 8.64844 55.1211 9.38086 54.4863 10.5625H54.4473V8.84375H52.748V22.418ZM57.377 17.6914C55.668 17.6914 54.4375 16.1973 54.4375 13.9316V13.9219C54.4375 11.6465 55.6582 10.1523 57.377 10.1523C59.1738 10.1523 60.2871 11.5879 60.2871 13.9219V13.9316C60.2871 16.2461 59.1738 17.6914 57.377 17.6914ZM64.3301 22.418C66.166 22.418 67.0547 21.5781 67.7773 19.6348L71.7422 8.84375H69.9551L67.1426 17.3008H67.1035L64.3008 8.84375H62.4844L66.2539 19.0098L66.0488 19.5859C65.6387 20.7383 65.043 21.0117 63.9688 21.0117C63.7637 21.0117 63.5684 20.9824 63.4219 20.9531V22.3398C63.6367 22.3789 63.998 22.418 64.3301 22.418ZM77.2695 19H78.9688V4.9082H77.2695V19ZM82.2207 7.125C82.8164 7.125 83.2852 6.64648 83.2852 6.06055C83.2852 5.46484 82.8164 4.99609 82.2207 4.99609C81.6348 4.99609 81.1562 5.46484 81.1562 6.06055C81.1562 6.64648 81.6348 7.125 82.2207 7.125ZM81.3711 19H83.0703V8.84375H81.3711V19ZM85.3848 19H87.084V13.0234C87.084 11.2949 88.1289 10.1523 89.7305 10.1523C91.293 10.1523 92.0645 11.0605 92.0645 12.7109V19H93.7637V12.4082C93.7637 10.0938 92.4746 8.64844 90.248 8.64844C88.7051 8.64844 87.6699 9.3418 87.123 10.2891H87.084V8.84375H85.3848V19ZM96.0684 19H97.7676V15.1719L98.7148 14.2637L102.484 19H104.457L99.916 13.2285L104.32 8.84375H102.26L97.8066 13.3262H97.7676V4.9082H96.0684V19Z" fill="#3C3CFD"/>
<defs>
<clipPath id="clip0_1133_1461">
<rect width="24" height="24" fill="white"/>
</clipPath>
</defs>
</svg>
