<svg width="26" height="26" viewBox="0 0 26 26" fill="none" xmlns="http://www.w3.org/2000/svg">
<g clip-path="url(#clip0_1150_3506)">
<path  d="M4.09781 11.1279L6.97623 7.16406C7.01288 7.11326 7.06108 7.0719 7.11686 7.04338C7.17263 7.01485 7.23438 6.99999 7.29703 7H18.6935C18.7626 7.00024 18.8304 7.01829 18.8905 7.05242C18.9505 7.08655 19.0007 7.1356 19.0363 7.19482L21.8927 11.1191C21.9613 11.1921 21.9996 11.2885 21.9997 11.3887C21.9996 11.4897 21.9614 11.587 21.8927 11.6611L13.382 20.7915C13.3465 20.8297 13.3038 20.8605 13.2564 20.8822C13.209 20.9039 13.1578 20.916 13.1057 20.918C13.0536 20.9199 13.0017 20.9115 12.9528 20.8933C12.9039 20.8751 12.8591 20.8475 12.821 20.812L12.7975 20.7871L4.10953 11.6641C4.09269 11.6459 4.0775 11.6263 4.06412 11.6055C4.01899 11.5332 3.99834 11.4483 4.00519 11.3633C4.01205 11.2784 4.04607 11.1979 4.1022 11.1338L4.09781 11.1279ZM10.5988 11.7856L13.0817 19.2388L15.5177 11.7856H10.5988ZM16.3512 11.7856L14.0148 18.9517L20.6989 11.7856H16.3512ZM12.1647 18.9736L9.76529 11.7856H5.31802L12.1647 18.9736ZM8.05142 7.79395L10.0612 10.7075L12.2101 7.79395H8.05142ZM13.7995 7.79395L16.0392 10.7075L17.9596 7.79395H13.7995ZM18.7096 8.08691L16.8053 10.9873H20.8293L18.7096 8.09131V8.08691ZM15.2599 10.9917L13.0026 8.05469L10.8346 10.9917H15.2599ZM9.29507 10.9917L7.2897 8.08252L5.17154 10.9917H9.29507Z" fill="#F1C40F"/>
</g>
<rect x="1.04688" y="0.611328" width="24" height="24" rx="12" stroke="#F1C40F"/>
<defs>
<clipPath id="clip0_1150_3506">
<rect width="18" height="13.9175" fill="white" transform="translate(4 7)"/>
</clipPath>
</defs>
</svg>
