<svg width="32" height="32" viewBox="0 0 38 38" fill="none" xmlns="http://www.w3.org/2000/svg">
<path fill-rule="evenodd" clip-rule="evenodd" d="M15.7414 5.146H22.2534C25.1632 5.14597 27.4679 5.14595 29.2717 5.38846C31.128 5.63804 32.6305 6.16389 33.8154 7.3488C35.0003 8.53371 35.5262 10.0362 35.7758 11.8925C36.0183 13.6963 36.0183 16.0011 36.0182 18.9108V19.0895C36.0183 21.9993 36.0183 24.304 35.7758 26.1078C35.5262 27.9641 35.0003 29.4666 33.8154 30.6515C32.6305 31.8364 31.128 32.3623 29.2717 32.6119C27.4679 32.8544 25.1632 32.8544 22.2534 32.8543H15.7414C12.8316 32.8544 10.5269 32.8544 8.72311 32.6119C6.86678 32.3623 5.36427 31.8364 4.17936 30.6515C2.99446 29.4666 2.4686 27.9641 2.21903 26.1078C1.97652 24.304 1.97654 21.9993 1.97656 19.0895V18.9108C1.97654 16.001 1.97652 13.6963 2.21903 11.8925C2.4686 10.0362 2.99446 8.53371 4.17936 7.3488C5.36427 6.16389 6.86678 5.63804 8.72311 5.38846C10.5269 5.14595 12.8316 5.14597 15.7414 5.146ZM9.03957 7.74228C7.4466 7.95645 6.52883 8.35809 5.85874 9.02818C5.18866 9.69826 4.78702 10.616 4.57285 12.209C4.35409 13.8361 4.35156 15.981 4.35156 19.0002C4.35156 22.0193 4.35409 24.1642 4.57285 25.7913C4.78702 27.3843 5.18866 28.3021 5.85874 28.9722C6.52883 29.6422 7.4466 30.0439 9.03957 30.258C10.6667 30.4768 12.8116 30.4793 15.8307 30.4793H22.1641C25.1832 30.4793 27.3281 30.4768 28.9552 30.258C30.5482 30.0439 31.466 29.6422 32.136 28.9722C32.8061 28.3021 33.2078 27.3843 33.4219 25.7913C33.6407 24.1642 33.6432 22.0193 33.6432 19.0002C33.6432 15.981 33.6407 13.8361 33.4219 12.209C33.2078 10.616 32.8061 9.69826 32.136 9.02818C31.466 8.35809 30.5482 7.95645 28.9552 7.74228C27.3281 7.52352 25.1832 7.521 22.1641 7.521H15.8307C12.8116 7.521 10.6667 7.52352 9.03957 7.74228ZM8.58513 11.9066C9.00499 11.4028 9.75379 11.3347 10.2576 11.7546L13.6759 14.6031C15.1531 15.8341 16.1786 16.686 17.0445 17.2429C17.8826 17.7819 18.451 17.9629 18.9974 17.9629C19.5438 17.9629 20.1122 17.7819 20.9503 17.2429C21.8162 16.686 22.8417 15.8341 24.3189 14.6031L27.7372 11.7546C28.241 11.3347 28.9898 11.4028 29.4097 11.9066C29.8295 12.4104 29.7614 13.1592 29.2576 13.5791L25.7798 16.4772C24.3764 17.6468 23.239 18.5947 22.235 19.2404C21.1892 19.913 20.1708 20.3379 18.9974 20.3379C17.824 20.3379 16.8055 19.913 15.7598 19.2404C14.7558 18.5947 13.6184 17.6468 12.215 16.4773L8.73718 13.5791C8.23335 13.1592 8.16528 12.4104 8.58513 11.9066Z" fill="#76BD22"/>
</svg>
