<svg width="32" height="32" viewBox="0 0 38 38" fill="none" xmlns="http://www.w3.org/2000/svg">
<path d="M20.997 2.97672C21.1018 2.32932 21.7138 1.89014 22.3612 1.99495C22.4013 2.00262 22.5302 2.02672 22.5978 2.04177C22.7329 2.07186 22.9214 2.11818 23.1563 2.18662C23.6262 2.32349 24.2827 2.54896 25.0706 2.91018C26.648 3.63337 28.7472 4.89847 30.9256 7.07682C33.1039 9.25517 34.369 11.3544 35.0922 12.9318C35.4534 13.7197 35.6789 14.3762 35.8158 14.8461C35.8842 15.081 35.9305 15.2695 35.9606 15.4046C35.9757 15.4722 35.9867 15.5264 35.9943 15.5665L36.0035 15.6159C36.1083 16.2633 35.6731 16.9006 35.0257 17.0054C34.3801 17.1099 33.772 16.6729 33.6646 16.0285C33.6613 16.0112 33.6522 15.9647 33.6424 15.9209C33.6229 15.8332 33.5891 15.6941 33.5355 15.5102C33.4284 15.1424 33.2423 14.5956 32.9333 13.9216C32.3161 12.5753 31.2062 10.7161 29.2462 8.7562C27.2863 6.79625 25.4271 5.68634 24.0808 5.06911C23.4068 4.76011 22.86 4.57401 22.4922 4.46687C22.3083 4.4133 22.0771 4.36024 21.9894 4.34071C21.345 4.23333 20.8925 3.62229 20.997 2.97672Z" fill="#76BD22"/>
<path fill-rule="evenodd" clip-rule="evenodd" d="M21.3552 8.43838C21.5354 7.80777 22.1927 7.44263 22.8233 7.6228L22.497 8.76461C22.8233 7.6228 22.8233 7.6228 22.8233 7.6228L22.8255 7.62345L22.828 7.62415L22.8333 7.6257L22.8455 7.62936L22.8769 7.63912C22.9007 7.64675 22.9305 7.6567 22.9661 7.66931C23.0372 7.69454 23.1312 7.73043 23.2465 7.77984C23.4771 7.87869 23.7923 8.03136 24.1795 8.26048C24.9544 8.71915 26.0124 9.48101 27.2553 10.7239C28.4981 11.9668 29.26 13.0247 29.7187 13.7997C29.9478 14.1868 30.1005 14.502 30.1993 14.7327C30.2487 14.848 30.2846 14.942 30.3098 15.0131C30.3225 15.0486 30.3324 15.0784 30.34 15.1023L30.3498 15.1336L30.3535 15.1459L30.355 15.1512L30.3557 15.1536C30.3557 15.1536 30.3564 15.1559 29.2145 15.4821L30.3564 15.1559C30.5365 15.7865 30.1714 16.4438 29.5408 16.6239C28.9155 16.8026 28.2641 16.4451 28.0774 15.8244L28.0716 15.8073C28.0631 15.7835 28.0457 15.7367 28.0163 15.6683C27.9578 15.5316 27.8515 15.3079 27.6748 15.0093C27.3218 14.4128 26.6842 13.5115 25.5759 12.4033C24.4676 11.295 23.5663 10.6574 22.9698 10.3044C22.6712 10.1276 22.4476 10.0214 22.3109 9.96281C22.2425 9.93349 22.1957 9.91602 22.1719 9.90758L22.1548 9.90173C21.534 9.71509 21.1766 9.06363 21.3552 8.43838Z" fill="#76BD22"/>
<path fill-rule="evenodd" clip-rule="evenodd" d="M7.93107 6.97743C10.5912 4.31732 15.0802 4.51954 16.9324 7.83841L17.96 9.67971C19.1695 11.847 18.6541 14.5816 16.8834 16.3738C16.8598 16.4061 16.7349 16.5881 16.7193 16.9061C16.6994 17.3119 16.8436 18.2505 18.2977 19.7047C19.7514 21.1584 20.6899 21.3029 21.0959 21.2831C21.4141 21.2676 21.5962 21.1426 21.6286 21.119C23.4209 19.3483 26.1554 18.8329 28.3227 20.0424L30.164 21.07C33.4829 22.9222 33.6851 27.4112 31.025 30.0713C29.6021 31.4942 27.7101 32.7585 25.4868 32.8428C22.192 32.9677 16.7212 32.1168 11.3034 26.699C5.88558 21.2812 5.03472 15.8104 5.15962 12.5156C5.24391 10.2923 6.50819 8.40031 7.93107 6.97743ZM14.8585 8.99581C13.91 7.29635 11.3613 6.90591 9.61045 8.65681C8.38281 9.88444 7.58471 11.2395 7.53292 12.6055C7.42876 15.3532 8.10712 20.144 12.9828 25.0196C17.8584 29.8953 22.6492 30.5736 25.3969 30.4695C26.7629 30.4177 28.118 29.6196 29.3456 28.392C31.0965 26.6411 30.706 24.0924 29.0066 23.1439L27.1653 22.1163C26.0199 21.4771 24.411 21.6952 23.2816 22.8245C23.1707 22.9354 22.4644 23.5943 21.2113 23.6553C19.9284 23.7177 18.3756 23.1413 16.6184 21.384C14.8605 19.6262 14.2843 18.073 14.3471 16.7899C14.4085 15.5367 15.0675 14.8312 15.1778 14.7209C16.3072 13.5915 16.5253 11.9825 15.8861 10.8371L14.8585 8.99581Z" fill="#76BD22"/>
</svg>
