<svg width="32" height="32" viewBox="0 0 24 24" fill="none" xmlns="http://www.w3.org/2000/svg">
<g clip-path="url(#clip0_1318_1755)">
<path d="M4.52148 0H19.4785C20.0717 0.000406247 20.659 0.117938 21.2066 0.345851C21.7543 0.573764 22.2516 0.907573 22.6699 1.32813C23.0903 1.7466 23.424 2.24389 23.6519 2.79153C23.8798 3.33916 23.9974 3.92637 23.998 4.51953V19.4785C23.9976 20.0717 23.8801 20.659 23.6522 21.2066C23.4243 21.7543 23.0905 22.2516 22.6699 22.6699C22.2514 23.0903 21.7542 23.424 21.2065 23.6519C20.6589 23.8798 20.0717 23.9974 19.4785 23.998H4.52148C3.92829 23.9976 3.34102 23.8801 2.79336 23.6522C2.24569 23.4243 1.74842 23.0905 1.33008 22.6699C0.909346 22.2516 0.57529 21.7544 0.347051 21.2067C0.118812 20.6591 0.000875704 20.0718 0 19.4785L0 4.52148C0.000406247 3.92829 0.117938 3.34102 0.345851 2.79336C0.573764 2.24569 0.907573 1.74842 1.32813 1.33008C1.7468 0.909286 2.24436 0.575209 2.79233 0.346975C3.34029 0.118741 3.92789 0.000832065 4.52148 0ZM12.9473 15.0391L9.89258 13.625C9.57057 14.0013 9.14367 14.273 8.66644 14.4054C8.18922 14.5379 7.68335 14.525 7.21348 14.3684C6.74361 14.2119 6.33109 13.9188 6.02864 13.5266C5.72619 13.1345 5.54755 12.661 5.51555 12.1668C5.48355 11.6726 5.59964 11.18 5.84898 10.7521C6.09833 10.3242 6.46961 9.98036 6.91536 9.76453C7.36112 9.5487 7.86111 9.47069 8.35143 9.54047C8.84174 9.61025 9.30012 9.82464 9.66797 10.1563L12.916 8.80274C12.8949 8.6736 12.8845 8.54295 12.8848 8.41211C12.8853 7.752 13.1479 7.1191 13.6148 6.65251C14.0818 6.18592 14.7149 5.92383 15.375 5.92383C15.7757 5.92334 16.1706 6.01947 16.5263 6.20409C16.8819 6.3887 17.1878 6.65635 17.418 6.98435C17.6482 7.31234 17.7959 7.691 17.8486 8.08823C17.9013 8.48545 17.8574 8.88953 17.7207 9.2662C17.5841 9.64287 17.3585 9.98102 17.0633 10.252C16.7681 10.523 16.412 10.7188 16.025 10.8228C15.638 10.9268 15.2317 10.936 14.8404 10.8495C14.4491 10.7631 14.0845 10.5835 13.7773 10.3262L10.4727 11.7051C10.4843 11.799 10.4902 11.8936 10.4902 11.9883L13.9297 13.5723C14.4016 13.2362 14.9764 13.0762 15.5541 13.1201C16.1317 13.164 16.6758 13.409 17.0914 13.8125C17.5071 14.2161 17.7682 14.7526 17.8292 15.3287C17.8902 15.9049 17.7473 16.4841 17.4253 16.9658C17.1034 17.4474 16.6227 17.801 16.0671 17.9649C15.5114 18.1288 14.9158 18.0927 14.384 17.8629C13.8522 17.6331 13.4178 17.2241 13.1563 16.7071C12.8949 16.1901 12.823 15.5977 12.9531 15.0332L12.9473 15.0391ZM19.4785 1.82422H4.52148C4.1683 1.82292 3.81833 1.89126 3.49158 2.02531C3.16483 2.15936 2.8677 2.35651 2.61719 2.60547C2.36823 2.85598 2.17108 3.15311 2.03703 3.47986C1.90298 3.80661 1.83464 4.15659 1.83594 4.50977V19.4785C1.83464 19.8317 1.90298 20.1817 2.03703 20.5084C2.17108 20.8352 2.36823 21.1323 2.61719 21.3828C2.8677 21.6318 3.16483 21.8289 3.49158 21.963C3.81833 22.097 4.1683 22.1654 4.52148 22.1641H19.4785C19.8317 22.1654 20.1817 22.097 20.5084 21.963C20.8352 21.8289 21.1323 21.6318 21.3828 21.3828C21.6318 21.1323 21.8289 20.8352 21.963 20.5084C22.097 20.1817 22.1654 19.8317 22.1641 19.4785V4.52148C22.1654 4.1683 22.097 3.81833 21.963 3.49158C21.8289 3.16483 21.6318 2.8677 21.3828 2.61719C21.1323 2.36823 20.8352 2.17108 20.5084 2.03703C20.1817 1.90298 19.8317 1.83464 19.4785 1.83594V1.82422Z" fill="#727272"/>
</g>
<defs>
<clipPath id="clip0_1318_1755">
<rect width="24" height="24" fill="white"/>
</clipPath>
</defs>
</svg>
