<svg width="32" height="32" viewBox="0 0 38 38" fill="none" xmlns="http://www.w3.org/2000/svg">
<path class="whatsapp-icon" d="M21 3C12.1467 3 5 9.7 5 18C5 21.4 6.17333 24.6 8.41333 27.2L6.17333 33.6C6.06667 34 6.17333 34.4 6.49333 34.7C6.6 34.9 6.92 35 7.13333 35C7.24 35 7.45333 35 7.56 34.9L14.92 31.8C16.84 32.6 18.8667 33 21 33C29.8533 33 37 26.3 37 18C37 9.7 29.8533 3 21 3Z" fill="#76BD22"/>
<path d="M29.6853 24.1875C29.2617 25.5375 27.6732 26.6625 26.2965 26.8875C25.9788 27 25.6611 27 25.2375 27C24.3903 27 23.1195 26.775 20.8956 25.7625C18.354 24.6375 15.8124 22.275 13.8003 19.2375V19.125C13.1649 18.1125 12 16.2 12 14.175C12 11.7 13.1649 10.4625 13.5885 9.9C14.118 9.3375 14.8593 9 15.7065 9C15.9183 9 16.0242 9 16.236 9C16.9773 9 17.5068 9.225 18.0363 10.35L18.4599 11.25C18.7776 12.15 19.2012 13.1625 19.3071 13.275C19.6248 13.95 19.6248 14.5125 19.3071 15.075C19.2012 15.4125 18.9894 15.6375 18.7776 15.8625C18.6717 16.0875 18.5658 16.2 18.4599 16.2C18.354 16.3125 18.354 16.3125 18.2481 16.425C18.5658 16.9875 19.2012 18 20.0484 18.7875C21.3192 20.025 22.2723 20.3625 22.8018 20.5875C23.0136 20.3625 23.2254 19.9125 23.5431 19.575L23.649 19.35C24.1785 18.5625 25.0257 18.3375 25.8729 18.675C26.2965 18.9 28.6263 20.025 28.6263 20.025L28.8381 20.1375C29.1558 20.3625 29.5794 20.475 29.7912 20.925C30.2148 21.9375 29.8971 23.4 29.6853 24.1875Z" fill="white"/>
</svg>
